<?xml version="1.0" encoding="UTF-8"?>
<svg id="Lager_2" xmlns="http://www.w3.org/2000/svg" viewBox="0 0 382.27 147.28">
  <defs>
    <style>
      .cls-1 {
        fill: #b71822;
      }

      .cls-2 {
        fill: #1a3b6d;
      }

      .cls-3 {
        fill: #f5bb05;
      }

      .cls-4 {
        fill: #ea5c12;
      }
    </style>
  </defs>
  <g id="Lager_1-2" data-name="Lager_1">
    <path class="cls-1" d="M2.56,76.97c.34-.85.51-1.28.85-2.14,7.09-15.29,15.48-28.6,26.71-40.21,9.86-10.2,21.88-20.05,34.89-26.21C74.84,3.75,85.95-.9,97.53.15c7.19.65,12.33,3.52,15.25,8.74,2.52,4.49,3.01,9.88,1.45,16.08-1.88,7.42-6.57,14.54-14.23,21.26-4.44,3.88-8.82,6.56-13.11,8.03-2.04.75-3.83,1.04-5.37.9-1.54-.15-2.87-.59-3.99-1.32-1.12-.73-2.04-1.6-2.74-2.61-1.42-2.17-1.9-4.03-1.44-5.59.45-1.56,1.2-2.6,2.23-3.12,8.08-3.54,17.34-9.7,22.89-16.76,1.86-2.33,3.09-4.66,3.71-6.99,1.29-4.91-.48-7.57-5.25-7.97-9.84-.82-18.99,4.81-26.62,9.62-10.2,6.42-19.76,15.62-27.49,25.1-7.31,8.97-14.72,18.5-18.87,29.7-.42,1.13-.62,1.69-1.04,2.82-3.79,11.18-3.69,18.89.46,23.11,1.49,1.51,3.57,2.44,6.24,2.8,2.67.36,5.29.38,7.85.08,2.56-.3,5.19-.83,7.88-1.6,4.38-1.29,10.22-3.74,17.46-7.43,2.17-1.06,3.58-.7,4.28,1,.58,1.4.66,2.97.15,4.68-.86,2.87-1.89,4.77-3.07,5.71-1.19.94-3.05,2-5.6,3.17-2.55,1.17-5.55,2.19-8.98,3.03-8.02,1.97-15.51,2.49-22.37,1.57-6.86-.92-12.14-2.45-15.81-4.52-3.67-2.08-6.45-4.7-8.35-7.87-3.91-6.66-4-14.93-.47-24.81Z"/>
    <path class="cls-2" d="M73.12,110.47c-.78-1.1-1.27-2.47-1.48-4.09-.2-1.62,0-3.46.61-5.51.61-2.05,1.95-4.76,4-8.12,2.05-3.36,4.52-7.17,7.38-11.45,3.76-5.56,5.62-8.34,9.31-13.93,9.34-14.48,19.09-29.4,24.92-45.67,1.15-3.22,3.21-4.75,6.12-4.57,1.83.12,3.25.63,4.24,1.56,1.91,1.85,2.58,3.81,2,5.91-.58,2.09-1.57,4.63-2.99,7.6-1.42,2.97-3.11,6.2-5.09,9.68-1.98,3.48-4.19,7.15-6.63,11.01-5.81,9.21-8.76,13.8-14.77,22.94-5.41,8.06-11.7,16.57-14.72,25.24-.67,1.92.05,3.21,1.94,3.37,1.8.16,3.54-.05,5.21-.62,1.67-.57,2.72-.84,3.15-.81.9.07,1.24.51,1.01,1.32-.95,3.44-3.7,6.16-8.28,8.14-3.08,1.36-5.72,1.93-7.9,1.73-2.18-.2-3.88-.6-5.08-1.19-1.2-.59-2.2-1.44-2.98-2.54Z"/>
    <path class="cls-4" d="M100.03,111.17c-1.39-1.68-2.27-3.76-2.64-6.21-.38-2.46-.14-5.31.71-8.56.85-3.25,2.17-6.5,3.98-9.75,1.8-3.25,3.94-6.37,6.42-9.34,2.47-2.98,5.21-5.74,8.21-8.3,3-2.56,6.14-4.77,9.41-6.63,7.12-3.99,13.86-5.86,20.34-5.59,8.5.36,13.51,4.08,14.98,11.23,1.07,5.17-.15,11.4-3.69,18.6-3.26,6.62-7.94,12.64-14.03,18.01-6.07,5.35-12.7,9.04-19.81,10.99-3.58.97-6.97,1.35-10.15,1.15-3.18-.21-5.92-.78-8.21-1.69-2.29-.91-4.13-2.22-5.51-3.9ZM119.67,83.85c-1.99,2.79-3.76,5.67-5.28,8.65-1.53,2.97-2.63,5.81-3.29,8.5-.67,2.7-.76,4.84-.29,6.43.48,1.59,1.71,2.45,3.69,2.58,1.98.13,4.09-.36,6.31-1.46,2.22-1.11,4.49-2.62,6.8-4.54,2.3-1.92,4.57-4.16,6.78-6.73,2.22-2.57,4.26-5.26,6.13-8.09,4.06-6.15,6.55-11.73,7.61-16.56.94-4.26.66-7.06-.94-8.31-.64-.5-1.63-.78-2.98-.84-1.35-.06-3.02.45-5.04,1.51-2.01,1.07-4.13,2.52-6.35,4.38-2.22,1.85-4.46,4.03-6.74,6.54-2.28,2.51-4.41,5.16-6.41,7.95Z"/>
    <path class="cls-2" d="M168.8,111.85c-6.9,4.58-12.09,6.78-15.44,6.67-3.36-.12-5.32-1.77-5.89-4.94-.22-1.11-.22-2.13,0-3.07.59-2.54,1.6-4.98,3.03-7.32,1.42-2.35,2.79-4.54,4.11-6.58,3.45-5.24,5.15-7.87,8.53-13.14,3.33-5.38,5.42-9.15,6.33-11.29.91-2.14,1.15-3.6.73-4.38-.42-.78-.96-1.46-1.61-2.04-.65-.59-1.27-1.11-1.86-1.58-.59-.47-.81-1.04-.67-1.73.14-.68.58-1.33,1.31-1.94.73-.61,1.64-1.14,2.73-1.59,2.17-.86,4.31-1.26,6.44-1.23,2.12.04,3.75.27,4.89.7,1.14.43,2.04.96,2.7,1.6,1.28,1.31,1.74,2.88,1.38,4.71-.36,1.83-1.08,3.88-2.18,6.14-1.1,2.27-2.39,4.67-3.89,7.21-1.5,2.54-3.15,5.16-4.94,7.88-2.07,3.22-3.11,4.83-5.2,8.04-4.15,6.48-6.93,11.31-8.25,14.54,4.32-1.13,10.69-5.49,18.85-13.17,9.23-8.69,17.39-18.55,24.45-29.1.87-1.38,1.8-2.27,2.78-2.67,1.61-.68,3.55-.99,5.81-.94,3.58.08,5.26,1.11,5.06,3.11-.13,1.22-.69,2.58-1.71,4.07-1.02,1.49-1.87,2.73-2.54,3.72-1.31,1.91-1.96,2.86-3.28,4.76-6.56,9.39-10.49,16.96-11.59,22.78-.77,4.05-.1,6.83,2.03,8.32.6.47,1.61.7,3.03.7,1.42,0,3.18-.48,5.29-1.42,2.1-.94,4.18-2.23,6.22-3.88,2.04-1.64,4.01-3.55,5.89-5.73,1.88-2.18,3.57-4.51,5.08-6.98,3.19-5.23,5.07-9.84,5.71-13.84,1.08-6.84.5-11.84-1.68-15.01-.75-1-.29-2.21,1.37-3.64,1.76-1.5,4.26-2.31,7.52-2.42,4-.14,6.41,1.91,7.24,6.17.35,1.6.29,4.03-.18,7.27-.47,3.25-1.61,6.88-3.42,10.91-1.82,4.02-4.06,7.9-6.74,11.62-2.68,3.72-5.66,7.2-8.95,10.42-3.29,3.22-6.67,6.02-10.14,8.4-7.43,5.07-14.02,7.58-19.66,7.58-9.67,0-13.33-5.74-11.07-17.05.52-2.59,1.28-5.12,2.27-7.59-6.35,6.72-12.99,12.38-19.89,16.96Z"/>
    <path class="cls-1" d="M283.95,66.91c-1.29.09-3.25,1.4-5.91,3.92-2.66,2.52-5,4.8-7.01,6.85-2.45,2.56-3.68,3.83-6.15,6.37-4.81,5.2-7.24,7.79-12.15,12.94-3.1,4.47-5.6,8.17-7.46,11.11-1.81,2.81-2.73,4.21-4.56,7.01-1.18,1.73-2.16,2.95-2.94,3.67-.78.71-1.75,1.09-2.9,1.12-1.15.03-2.22-.12-3.22-.47-1-.35-1.84-.81-2.52-1.38-1.43-1.22-2.02-2.59-1.77-4.09.1-.59.77-1.77,2.01-3.53,1.3-1.94,1.95-2.92,3.24-4.87,1-1.44,2.2-3.29,3.57-5.53,1.95-3.29,2.92-4.94,4.84-8.24,6.8-11.84,10.29-19.51,10.77-22.92.26-1.82-.18-3.14-1.3-3.96-.45-.31-.68-.47-1.13-.78-.38-.26-.51-.74-.42-1.43.1-.69.47-1.37,1.12-2.03.65-.66,1.46-1.24,2.43-1.76,1.98-.99,3.91-1.54,5.79-1.63,1.88-.09,3.31.03,4.29.37.98.34,1.78.83,2.39,1.47,1.35,1.31,1.93,2.71,1.74,4.22-.19,1.51-.58,3.04-1.18,4.59-.59,1.55-1.3,3.12-2.11,4.72-.81,1.6-1.66,3.17-2.53,4.71-.87,1.54-1.66,2.88-2.36,4.02-.65,1.05-.97,1.57-1.62,2.62-.43.65-.54.85-.34.61,5.53-6.32,9.09-10.43,10.77-12.25,2.01-2.1,3.01-3.15,5.01-5.26,3.64-3.77,6.42-6.3,8.37-7.57,3.95-2.63,6.96-4.04,9.07-4.2,2.1-.16,3.85-.04,5.24.36,1.39.4,2.57,1.04,3.55,1.9,2.07,1.84,2.95,4.33,2.64,7.48-.31,3.15-1.39,6.49-3.26,10.04-1.87,3.55-3.48,6.42-4.83,8.64-1.35,2.21-2.66,4.45-3.93,6.71-3.94,6.87-6.15,11.81-6.52,14.83-.17,1.35.91,1.95,3.23,1.79,1.8-.12,3.49-.6,5.05-1.42s2.56-1.26,2.99-1.29c.9-.07,1.3.31,1.21,1.15-.4,3.54-2.7,6.66-6.92,9.33-2.83,1.82-5.36,2.79-7.57,2.94-2.21.14-4.01.04-5.4-.31-1.39-.35-2.59-.97-3.59-1.86-2.27-1.96-3.14-4.83-2.63-8.6.62-4.61,2.92-10.55,6.91-17.55,2.76-4.85,4.8-8.21,5.93-10.02,1.06-1.75,1.58-2.63,2.63-4.38,1.59-2.63,2.46-4.69,2.63-6.16.16-1.47-.9-2.12-3.19-1.96Z"/>
    <path class="cls-3" d="M308.49,99.1c-.37,3.68,1.15,5.55,3.93,5.11,9.81-1.52,17.07-13.66,22.9-21.38,2.86-4.09,5.71-8.39,8.54-12.93,3.3-5.57,4.93-8.36,8.15-13.94,6.53-11.98,12.89-24.05,19.28-36.11.82-1.51,1.94-2.38,3.37-2.59,1.43-.22,2.63-.2,3.59.06.96.26,1.78.66,2.46,1.21,1.59,1.3,1.97,2.78,1.12,4.46-2.84,5.48-5.54,11.51-8.12,18.11-5.4,14.32-11.09,28.54-16.96,42.67-1.88,4.33-3.84,8.51-5.87,12.55-2.03,4.04-4.3,8.08-6.82,12.1-2.52,4.02-5.2,7.88-8.06,11.57-2.86,3.69-5.85,7.14-8.97,10.36-3.12,3.21-6.29,6.04-9.51,8.49-6.84,5.16-13.25,7.95-19.1,8.4-1.12.09-2.19-.06-3.21-.45-1.02-.38-1.58-1-1.69-1.83-.11-.83.11-1.43.66-1.77.55-.35,1.27-.71,2.17-1.08,16.21-7.05,26.55-20.85,36.29-34.95,3.43-5.44,6.76-11.14,9.51-16.92,3.47-7.3,5.52-12.43,6.47-14.74-2.69,3.89-4.05,5.83-6.78,9.7-8.91,11.33-20.61,27.93-35.62,29.79-5.99.74-10.15-1.67-11.66-6.53-.45-1.54-.6-2.86-.48-3.99.1-.88.15-1.32.25-2.2,1.74-9.59,7.03-18.88,11.49-27.39,5.08-9.73,10.07-19.48,14.99-29.28,2.82-5.86,4.24-9.44,4.33-10.74.09-1.3-.07-2.25-.49-2.86-.42-.61-.91-1.07-1.47-1.4-.6-.4-.9-.6-1.5-.99-.45-.26-.65-.7-.6-1.32.05-.62.4-1.27,1.07-1.96.67-.68,1.52-1.31,2.57-1.89,2.08-1.11,4.11-1.77,6.07-2,1.96-.22,3.46-.2,4.51.09,1.04.28,1.9.69,2.56,1.23,1.29,1.12,1.88,2.57,1.78,4.38-.11,1.8-.57,3.96-1.41,6.49-.84,2.52-1.91,5.29-3.23,8.31-1.32,3.02-2.83,6.21-4.53,9.59-4.2,8.16-6.33,12.24-10.7,20.36-4.41,8.06-9,16.36-11.19,25.34-.04.35-.05.52-.09.87Z"/>
  </g>
</svg>